<svg width="20" height="21" viewBox="0 0 20 21" fill="none" xmlns="http://www.w3.org/2000/svg">
<path d="M9.16699 3.83334H3.33366C2.89163 3.83334 2.46771 4.00894 2.15515 4.3215C1.84259 4.63406 1.66699 5.05798 1.66699 5.50001V17.1667C1.66699 17.6087 1.84259 18.0326 2.15515 18.3452C2.46771 18.6577 2.89163 18.8333 3.33366 18.8333H15.0003C15.4424 18.8333 15.8663 18.6577 16.1788 18.3452C16.4914 18.0326 16.667 17.6087 16.667 17.1667V11.3333" stroke="#FFFFFF" stroke-width="1.2" stroke-linecap="round" stroke-linejoin="round"/>
<path d="M15.417 2.58332C15.7485 2.2518 16.1982 2.06555 16.667 2.06555C17.1358 2.06555 17.5855 2.2518 17.917 2.58332C18.2485 2.91484 18.4348 3.36448 18.4348 3.83332C18.4348 4.30216 18.2485 4.7518 17.917 5.08332L10.0003 13L6.66699 13.8333L7.50033 10.5L15.417 2.58332Z" stroke="#FFFFFF" stroke-width="1.2" stroke-linecap="round" stroke-linejoin="round"/>
</svg>
