<svg width="48" height="49" viewBox="0 0 48 49" fill="none" xmlns="http://www.w3.org/2000/svg">
<path d="M34 4.5H14C8.47715 4.5 4 8.97715 4 14.5V34.5C4 40.0228 8.47715 44.5 14 44.5H34C39.5228 44.5 44 40.0228 44 34.5V14.5C44 8.97715 39.5228 4.5 34 4.5Z" stroke="#F78500" stroke-width="4" stroke-linecap="round" stroke-linejoin="round"/>
<path d="M31.9999 23.24C32.2467 24.9045 31.9624 26.6044 31.1874 28.098C30.4124 29.5916 29.1862 30.8028 27.6832 31.5593C26.1801 32.3159 24.4768 32.5792 22.8155 32.3119C21.1542 32.0445 19.6194 31.2602 18.4296 30.0703C17.2397 28.8805 16.4554 27.3457 16.188 25.6844C15.9207 24.0231 16.184 22.3198 16.9406 20.8167C17.6971 19.3137 18.9083 18.0875 20.4019 17.3125C21.8955 16.5375 23.5954 16.2532 25.2599 16.5C26.9577 16.7518 28.5296 17.5429 29.7433 18.7566C30.957 19.9703 31.7481 21.5421 31.9999 23.24Z" stroke="#F78500" stroke-width="4" stroke-linecap="round" stroke-linejoin="round"/>
<path d="M35 13.5H35.02" stroke="#F78500" stroke-width="4" stroke-linecap="round" stroke-linejoin="round"/>
</svg>
