<svg width="271" height="42" viewBox="0 0 271 42" fill="none" xmlns="http://www.w3.org/2000/svg">
<g clip-path="url(#clip0_430_462)">
<path d="M20.5 0C31.546 0 40.5 8.954 40.5 20V34C40.5 35.5913 39.8678 37.1174 38.7426 38.2426C37.6174 39.3679 36.0913 40 34.5 40H21.5V31.226C21.5 29.224 21.622 27.15 22.672 25.446C23.4237 24.2248 24.4293 23.1796 25.6205 22.3813C26.8117 21.5829 28.1607 21.0501 29.576 20.819L29.959 20.757C30.1169 20.703 30.254 20.601 30.351 20.4653C30.4481 20.3296 30.5002 20.1669 30.5002 20C30.5002 19.8331 30.4481 19.6704 30.351 19.5347C30.254 19.399 30.1169 19.297 29.959 19.243L29.576 19.181C27.5082 18.8432 25.5987 17.8644 24.1171 16.3829C22.6355 14.9013 21.6568 12.9918 21.319 10.924L21.257 10.541C21.203 10.3831 21.101 10.246 20.9653 10.149C20.8295 10.0519 20.6669 9.99975 20.5 9.99975C20.3331 9.99975 20.1704 10.0519 20.0347 10.149C19.899 10.246 19.797 10.3831 19.743 10.541L19.681 10.924C19.4499 12.3393 18.9171 13.6883 18.1188 14.8795C17.3204 16.0707 16.2752 17.0763 15.054 17.828C13.35 18.878 11.276 19 9.27399 19H0.523987C1.04699 8.419 9.78999 0 20.5 0Z" fill="white"/>
<path d="M0.5 21H9.274C11.276 21 13.35 21.122 15.054 22.172C16.386 22.9928 17.5072 24.114 18.328 25.446C19.378 27.15 19.5 29.224 19.5 31.226V40H6.5C4.9087 40 3.38258 39.3679 2.25736 38.2426C1.13214 37.1174 0.5 35.5913 0.5 34L0.5 21ZM40.5 2C40.5 2.53043 40.2893 3.03914 39.9142 3.41421C39.5391 3.78929 39.0304 4 38.5 4C37.9696 4 37.4609 3.78929 37.0858 3.41421C36.7107 3.03914 36.5 2.53043 36.5 2C36.5 1.46957 36.7107 0.960859 37.0858 0.585786C37.4609 0.210714 37.9696 0 38.5 0C39.0304 0 39.5391 0.210714 39.9142 0.585786C40.2893 0.960859 40.5 1.46957 40.5 2Z" fill="white"/>
</g>
<path d="M68.2725 31H63.4845L55.4765 18.876V31H50.6885V11.344H55.4765L63.4845 23.524V11.344H68.2725V31ZM86.6112 15.376V31H81.8232V28.872C81.3379 29.5627 80.6752 30.1227 79.8352 30.552C79.0139 30.9627 78.0992 31.168 77.0912 31.168C75.8965 31.168 74.8419 30.9067 73.9272 30.384C73.0125 29.8427 72.3032 29.068 71.7992 28.06C71.2952 27.052 71.0432 25.8667 71.0432 24.504V15.376H75.8032V23.86C75.8032 24.9053 76.0739 25.7173 76.6152 26.296C77.1565 26.8747 77.8845 27.164 78.7992 27.164C79.7325 27.164 80.4699 26.8747 81.0112 26.296C81.5525 25.7173 81.8232 24.9053 81.8232 23.86V15.376H86.6112ZM95.8464 31.224C94.4837 31.224 93.2704 30.9907 92.2064 30.524C91.1424 30.0573 90.3024 29.4227 89.6864 28.62C89.0704 27.7987 88.725 26.884 88.6504 25.876H93.3824C93.4384 26.4173 93.6904 26.856 94.1384 27.192C94.5864 27.528 95.137 27.696 95.7904 27.696C96.3877 27.696 96.845 27.584 97.1624 27.36C97.4984 27.1173 97.6664 26.8093 97.6664 26.436C97.6664 25.988 97.433 25.6613 96.9664 25.456C96.4997 25.232 95.7437 24.9893 94.6984 24.728C93.5784 24.4667 92.645 24.196 91.8984 23.916C91.1517 23.6173 90.5077 23.16 89.9664 22.544C89.425 21.9093 89.1544 21.06 89.1544 19.996C89.1544 19.1 89.397 18.288 89.8824 17.56C90.3864 16.8133 91.1144 16.2253 92.0664 15.796C93.037 15.3667 94.185 15.152 95.5104 15.152C97.4704 15.152 99.0104 15.6373 100.13 16.608C101.269 17.5787 101.922 18.8667 102.09 20.472H97.6664C97.5917 19.9307 97.349 19.5013 96.9384 19.184C96.5464 18.8667 96.0237 18.708 95.3704 18.708C94.8104 18.708 94.381 18.82 94.0824 19.044C93.7837 19.2493 93.6344 19.5387 93.6344 19.912C93.6344 20.36 93.8677 20.696 94.3344 20.92C94.8197 21.144 95.5664 21.368 96.5744 21.592C97.7317 21.8907 98.6744 22.1893 99.4024 22.488C100.13 22.768 100.765 23.2347 101.306 23.888C101.866 24.5227 102.156 25.3813 102.174 26.464C102.174 27.3787 101.913 28.2 101.39 28.928C100.886 29.6373 100.149 30.1973 99.1784 30.608C98.2264 31.0187 97.1157 31.224 95.8464 31.224ZM103.592 23.16C103.592 21.5547 103.89 20.1453 104.488 18.932C105.104 17.7187 105.934 16.7853 106.98 16.132C108.025 15.4787 109.192 15.152 110.48 15.152C111.581 15.152 112.542 15.376 113.364 15.824C114.204 16.272 114.848 16.86 115.296 17.588V15.376H120.084V31H115.296V28.788C114.829 29.516 114.176 30.104 113.336 30.552C112.514 31 111.553 31.224 110.452 31.224C109.182 31.224 108.025 30.8973 106.98 30.244C105.934 29.572 105.104 28.6293 104.488 27.416C103.89 26.184 103.592 24.7653 103.592 23.16ZM115.296 23.188C115.296 21.9933 114.96 21.0507 114.288 20.36C113.634 19.6693 112.832 19.324 111.88 19.324C110.928 19.324 110.116 19.6693 109.444 20.36C108.79 21.032 108.464 21.9653 108.464 23.16C108.464 24.3547 108.79 25.3067 109.444 26.016C110.116 26.7067 110.928 27.052 111.88 27.052C112.832 27.052 113.634 26.7067 114.288 26.016C114.96 25.3253 115.296 24.3827 115.296 23.188ZM132.508 15.208C134.337 15.208 135.793 15.8053 136.876 17C137.977 18.176 138.528 19.8 138.528 21.872V31H133.768V22.516C133.768 21.4707 133.497 20.6587 132.956 20.08C132.414 19.5013 131.686 19.212 130.772 19.212C129.857 19.212 129.129 19.5013 128.588 20.08C128.046 20.6587 127.776 21.4707 127.776 22.516V31H122.988V15.376H127.776V17.448C128.261 16.7573 128.914 16.216 129.736 15.824C130.557 15.4133 131.481 15.208 132.508 15.208ZM150.003 26.94V31H147.567C145.831 31 144.477 30.58 143.507 29.74C142.536 28.8813 142.051 27.4907 142.051 25.568V19.352H140.147V15.376H142.051V11.568H146.839V15.376H149.975V19.352H146.839V25.624C146.839 26.0907 146.951 26.4267 147.175 26.632C147.399 26.8373 147.772 26.94 148.295 26.94H150.003ZM151.158 23.16C151.158 21.5547 151.456 20.1453 152.054 18.932C152.67 17.7187 153.5 16.7853 154.546 16.132C155.591 15.4787 156.758 15.152 158.046 15.152C159.147 15.152 160.108 15.376 160.93 15.824C161.77 16.272 162.414 16.86 162.862 17.588V15.376H167.65V31H162.862V28.788C162.395 29.516 161.742 30.104 160.902 30.552C160.08 31 159.119 31.224 158.018 31.224C156.748 31.224 155.591 30.8973 154.546 30.244C153.5 29.572 152.67 28.6293 152.054 27.416C151.456 26.184 151.158 24.7653 151.158 23.16ZM162.862 23.188C162.862 21.9933 162.526 21.0507 161.854 20.36C161.2 19.6693 160.398 19.324 159.446 19.324C158.494 19.324 157.682 19.6693 157.01 20.36C156.356 21.032 156.03 21.9653 156.03 23.16C156.03 24.3547 156.356 25.3067 157.01 26.016C157.682 26.7067 158.494 27.052 159.446 27.052C160.398 27.052 161.2 26.7067 161.854 26.016C162.526 25.3253 162.862 24.3827 162.862 23.188ZM175.342 17.98C175.902 17.1213 176.602 16.4493 177.442 15.964C178.282 15.46 179.215 15.208 180.242 15.208V20.276H178.926C177.731 20.276 176.835 20.5373 176.238 21.06C175.64 21.564 175.342 22.46 175.342 23.748V31H170.554V15.376H175.342V17.98ZM181.018 23.16C181.018 21.5547 181.317 20.1453 181.914 18.932C182.53 17.7187 183.361 16.7853 184.406 16.132C185.452 15.4787 186.618 15.152 187.906 15.152C189.008 15.152 189.969 15.376 190.79 15.824C191.63 16.272 192.274 16.86 192.722 17.588V15.376H197.51V31H192.722V28.788C192.256 29.516 191.602 30.104 190.762 30.552C189.941 31 188.98 31.224 187.878 31.224C186.609 31.224 185.452 30.8973 184.406 30.244C183.361 29.572 182.53 28.6293 181.914 27.416C181.317 26.184 181.018 24.7653 181.018 23.16ZM192.722 23.188C192.722 21.9933 192.386 21.0507 191.714 20.36C191.061 19.6693 190.258 19.324 189.306 19.324C188.354 19.324 187.542 19.6693 186.87 20.36C186.217 21.032 185.89 21.9653 185.89 23.16C185.89 24.3547 186.217 25.3067 186.87 26.016C187.542 26.7067 188.354 27.052 189.306 27.052C190.258 27.052 191.061 26.7067 191.714 26.016C192.386 25.3253 192.722 24.3827 192.722 23.188ZM204.976 21.144C204.976 19.2027 205.396 17.476 206.236 15.964C207.076 14.4333 208.242 13.248 209.736 12.408C211.248 11.5493 212.956 11.12 214.86 11.12C217.193 11.12 219.19 11.736 220.852 12.968C222.513 14.2 223.624 15.88 224.184 18.008H218.92C218.528 17.1867 217.968 16.5613 217.24 16.132C216.53 15.7027 215.718 15.488 214.804 15.488C213.329 15.488 212.134 16.0013 211.22 17.028C210.305 18.0547 209.848 19.4267 209.848 21.144C209.848 22.8613 210.305 24.2333 211.22 25.26C212.134 26.2867 213.329 26.8 214.804 26.8C215.718 26.8 216.53 26.5853 217.24 26.156C217.968 25.7267 218.528 25.1013 218.92 24.28H224.184C223.624 26.408 222.513 28.088 220.852 29.32C219.19 30.5333 217.193 31.14 214.86 31.14C212.956 31.14 211.248 30.72 209.736 29.88C208.242 29.0213 207.076 27.836 206.236 26.324C205.396 24.812 204.976 23.0853 204.976 21.144ZM225.604 23.16C225.604 21.5547 225.903 20.1453 226.5 18.932C227.116 17.7187 227.947 16.7853 228.992 16.132C230.037 15.4787 231.204 15.152 232.492 15.152C233.593 15.152 234.555 15.376 235.376 15.824C236.216 16.272 236.86 16.86 237.308 17.588V15.376H242.096V31H237.308V28.788C236.841 29.516 236.188 30.104 235.348 30.552C234.527 31 233.565 31.224 232.464 31.224C231.195 31.224 230.037 30.8973 228.992 30.244C227.947 29.572 227.116 28.6293 226.5 27.416C225.903 26.184 225.604 24.7653 225.604 23.16ZM237.308 23.188C237.308 21.9933 236.972 21.0507 236.3 20.36C235.647 19.6693 234.844 19.324 233.892 19.324C232.94 19.324 232.128 19.6693 231.456 20.36C230.803 21.032 230.476 21.9653 230.476 23.16C230.476 24.3547 230.803 25.3067 231.456 26.016C232.128 26.7067 232.94 27.052 233.892 27.052C234.844 27.052 235.647 26.7067 236.3 26.016C236.972 25.3253 237.308 24.3827 237.308 23.188ZM252.84 19.352H250.264V31H245.476V19.352H243.74V15.376H245.476V14.928C245.476 13.0053 246.026 11.5493 247.128 10.56C248.229 9.552 249.844 9.048 251.972 9.048C252.326 9.048 252.588 9.05733 252.756 9.076V13.136C251.841 13.08 251.197 13.2107 250.824 13.528C250.45 13.8453 250.264 14.4147 250.264 15.236V15.376H252.84V19.352ZM269.258 22.936C269.258 23.384 269.23 23.8507 269.174 24.336H258.338C258.412 25.3067 258.72 26.0533 259.262 26.576C259.822 27.08 260.503 27.332 261.306 27.332C262.5 27.332 263.331 26.828 263.798 25.82H268.894C268.632 26.8467 268.156 27.7707 267.466 28.592C266.794 29.4133 265.944 30.0573 264.918 30.524C263.891 30.9907 262.743 31.224 261.474 31.224C259.943 31.224 258.58 30.8973 257.386 30.244C256.191 29.5907 255.258 28.6573 254.586 27.444C253.914 26.2307 253.578 24.812 253.578 23.188C253.578 21.564 253.904 20.1453 254.558 18.932C255.23 17.7187 256.163 16.7853 257.358 16.132C258.552 15.4787 259.924 15.152 261.474 15.152C262.986 15.152 264.33 15.4693 265.506 16.104C266.682 16.7387 267.596 17.644 268.25 18.82C268.922 19.996 269.258 21.368 269.258 22.936ZM264.358 21.676C264.358 20.8547 264.078 20.2013 263.518 19.716C262.958 19.2307 262.258 18.988 261.418 18.988C260.615 18.988 259.934 19.2213 259.374 19.688C258.832 20.1547 258.496 20.8173 258.366 21.676H264.358Z" fill="white"/>
<defs>
<clipPath id="clip0_430_462">
<rect width="40" height="40" fill="white" transform="translate(0.5)"/>
</clipPath>
</defs>
</svg>
