<svg width="48" height="49" viewBox="0 0 48 49" fill="none" xmlns="http://www.w3.org/2000/svg">
<path d="M18 36.5V10.5L42 6.5V32.5" stroke="#F78500" stroke-width="4" stroke-linecap="round" stroke-linejoin="round"/>
<path d="M12 42.5C15.3137 42.5 18 39.8137 18 36.5C18 33.1863 15.3137 30.5 12 30.5C8.68629 30.5 6 33.1863 6 36.5C6 39.8137 8.68629 42.5 12 42.5Z" stroke="#F78500" stroke-width="4" stroke-linecap="round" stroke-linejoin="round"/>
<path d="M36 38.5C39.3137 38.5 42 35.8137 42 32.5C42 29.1863 39.3137 26.5 36 26.5C32.6863 26.5 30 29.1863 30 32.5C30 35.8137 32.6863 38.5 36 38.5Z" stroke="#F78500" stroke-width="4" stroke-linecap="round" stroke-linejoin="round"/>
</svg>
