<svg width="48" height="49" viewBox="0 0 48 49" fill="none" xmlns="http://www.w3.org/2000/svg">
<path d="M45 20H42.975L37.7663 8.28125C37.5305 7.75105 37.1461 7.30059 36.6596 6.98443C36.173 6.66828 35.6052 6.50001 35.025 6.5H12.975C12.3948 6.50001 11.827 6.66828 11.3404 6.98443C10.8539 7.30059 10.4695 7.75105 10.2338 8.28125L5.025 20H3C2.60218 20 2.22064 20.158 1.93934 20.4393C1.65804 20.7206 1.5 21.1022 1.5 21.5C1.5 21.8978 1.65804 22.2794 1.93934 22.5607C2.22064 22.842 2.60218 23 3 23H4.5V38C4.5 38.7957 4.81607 39.5587 5.37868 40.1213C5.94129 40.6839 6.70435 41 7.5 41H12C12.7956 41 13.5587 40.6839 14.1213 40.1213C14.6839 39.5587 15 38.7957 15 38V35H33V38C33 38.7957 33.3161 39.5587 33.8787 40.1213C34.4413 40.6839 35.2043 41 36 41H40.5C41.2957 41 42.0587 40.6839 42.6213 40.1213C43.1839 39.5587 43.5 38.7957 43.5 38V23H45C45.3978 23 45.7794 22.842 46.0607 22.5607C46.342 22.2794 46.5 21.8978 46.5 21.5C46.5 21.1022 46.342 20.7206 46.0607 20.4393C45.7794 20.158 45.3978 20 45 20ZM12.975 9.5H35.025L39.6919 20H8.30813L12.975 9.5ZM12 38H7.5V35H12V38ZM36 38V35H40.5V38H36ZM40.5 32H7.5V23H40.5V32ZM10.5 27.5C10.5 27.1022 10.658 26.7206 10.9393 26.4393C11.2206 26.158 11.6022 26 12 26H15C15.3978 26 15.7794 26.158 16.0607 26.4393C16.342 26.7206 16.5 27.1022 16.5 27.5C16.5 27.8978 16.342 28.2794 16.0607 28.5607C15.7794 28.842 15.3978 29 15 29H12C11.6022 29 11.2206 28.842 10.9393 28.5607C10.658 28.2794 10.5 27.8978 10.5 27.5ZM31.5 27.5C31.5 27.1022 31.658 26.7206 31.9393 26.4393C32.2206 26.158 32.6022 26 33 26H36C36.3978 26 36.7794 26.158 37.0607 26.4393C37.342 26.7206 37.5 27.1022 37.5 27.5C37.5 27.8978 37.342 28.2794 37.0607 28.5607C36.7794 28.842 36.3978 29 36 29H33C32.6022 29 32.2206 28.842 31.9393 28.5607C31.658 28.2794 31.5 27.8978 31.5 27.5Z" fill="#F78500"/>
</svg>
