<svg width="20" height="21" viewBox="0 0 20 21" fill="none" xmlns="http://www.w3.org/2000/svg">
<path d="M2.5 5.5H4.16667H17.5" stroke="#ffffff" stroke-width="1.2" stroke-linecap="round" stroke-linejoin="round"/>
<path d="M15.8337 5.49999V17.1667C15.8337 17.6087 15.6581 18.0326 15.3455 18.3452C15.0329 18.6577 14.609 18.8333 14.167 18.8333H5.83366C5.39163 18.8333 4.96771 18.6577 4.65515 18.3452C4.34259 18.0326 4.16699 17.6087 4.16699 17.1667V5.49999M6.66699 5.49999V3.83332C6.66699 3.3913 6.84259 2.96737 7.15515 2.65481C7.46771 2.34225 7.89163 2.16666 8.33366 2.16666H11.667C12.109 2.16666 12.5329 2.34225 12.8455 2.65481C13.1581 2.96737 13.3337 3.3913 13.3337 3.83332V5.49999" stroke="#ffffff" stroke-width="1.2" stroke-linecap="round" stroke-linejoin="round"/>
<path d="M8.33301 9.66666V14.6667" stroke="#ffffff" stroke-width="1.2" stroke-linecap="round" stroke-linejoin="round"/>
<path d="M11.667 9.66666V14.6667" stroke="#ffffff" stroke-width="1.2" stroke-linecap="round" stroke-linejoin="round"/>
</svg>
