<svg width="48" height="49" viewBox="0 0 48 49" fill="none" xmlns="http://www.w3.org/2000/svg">
<path d="M32 6.5H2V32.5H32V6.5Z" stroke="#F78500" stroke-width="4" stroke-linecap="round" stroke-linejoin="round"/>
<path d="M32 16.5H40L46 22.5V32.5H32V16.5Z" stroke="#F78500" stroke-width="4" stroke-linecap="round" stroke-linejoin="round"/>
<path d="M11 42.5C13.7614 42.5 16 40.2614 16 37.5C16 34.7386 13.7614 32.5 11 32.5C8.23858 32.5 6 34.7386 6 37.5C6 40.2614 8.23858 42.5 11 42.5Z" stroke="#F78500" stroke-width="4" stroke-linecap="round" stroke-linejoin="round"/>
<path d="M37 42.5C39.7614 42.5 42 40.2614 42 37.5C42 34.7386 39.7614 32.5 37 32.5C34.2386 32.5 32 34.7386 32 37.5C32 40.2614 34.2386 42.5 37 42.5Z" stroke="#F78500" stroke-width="4" stroke-linecap="round" stroke-linejoin="round"/>
</svg>
