<svg width="48" height="49" viewBox="0 0 48 49" fill="none" xmlns="http://www.w3.org/2000/svg">
<path d="M19.18 9.67997C19.6446 9.21259 20.2175 8.86725 20.8477 8.67465C21.478 8.48204 22.1461 8.44814 22.7926 8.57595C23.4391 8.70376 24.044 8.98932 24.5535 9.40726C25.0631 9.82519 25.4614 10.3625 25.7133 10.9716C25.9651 11.5806 26.0625 12.2423 25.9969 12.8981C25.9313 13.5538 25.7048 14.1832 25.3373 14.7303C24.9699 15.2774 24.4729 15.7252 23.8907 16.0339C23.3085 16.3426 22.659 16.5027 22 16.5H4M25.18 39.32C25.6446 39.7873 26.2175 40.1327 26.8477 40.3253C27.478 40.5179 28.1461 40.5518 28.7926 40.424C29.4391 40.2962 30.044 40.0106 30.5535 39.5927C31.0631 39.1747 31.4614 38.6374 31.7133 38.0284C31.9651 37.4194 32.0625 36.7576 31.9969 36.1018C31.9313 35.4461 31.7048 34.8167 31.3373 34.2696C30.9699 33.7226 30.4729 33.2748 29.8907 32.966C29.3085 32.6573 28.659 32.4972 28 32.5H4M35.46 15.96C36.0417 15.3797 36.7574 14.9518 37.5439 14.714C38.3303 14.4762 39.1632 14.4358 39.969 14.5965C40.7747 14.7572 41.5284 15.114 42.1635 15.6353C42.7985 16.1566 43.2953 16.8264 43.61 17.5853C43.9246 18.3443 44.0473 19.1692 43.9673 19.9869C43.8873 20.8046 43.607 21.59 43.1512 22.2736C42.6955 22.9572 42.0783 23.5179 41.3542 23.9063C40.6302 24.2946 39.8216 24.4985 39 24.5H4" stroke="#F78500" stroke-width="4" stroke-linecap="round" stroke-linejoin="round"/>
</svg>
